<svg xmlns="http://www.w3.org/2000/svg" viewBox="0 0 30 30"><path fill="#fff" d="M 24.984375 1.9863281 A 1.0001 1.0001 0 0 0 24 3 L 24 6 L 21 6 A 1.0001 1.0001 0 1 0 21 8 L 24 8 L 24 11 A 1.0001 1.0001 0 1 0 26 11 L 26 8 L 29 8 A 1.0001 1.0001 0 1 0 29 6 L 26 6 L 26 3 A 1.0001 1.0001 0 0 0 24.984375 1.9863281 z M 14.369141 4.0019531 A 1.50015 1.50015 0 0 0 13.054688 4.9492188 L 5.5332031 24 L 5 24 A 1.0001 1.0001 0 1 0 5 26 L 9 26 A 1.0001 1.0001 0 1 0 9 24 L 8.7578125 24 L 10.339844 19.990234 A 1.0001 1.0001 0 0 0 10.5 20 L 19.347656 20 L 21.152344 24 L 21 24 A 1.0001 1.0001 0 1 0 21 26 L 25 26 A 1.0001 1.0001 0 1 0 25 24 L 24.445312 24 L 15.816406 4.8828125 A 1.50015 1.50015 0 0 0 14.369141 4.0019531 z M 14.541016 9.3515625 L 18.445312 18 L 11.126953 18 L 14.541016 9.3515625 z"></path></svg>