<?xml version="1.0" encoding="UTF-8"?>
<svg width="755px" height="162px" viewBox="0 0 755 162" version="1.1" xmlns="http://www.w3.org/2000/svg" xmlns:xlink="http://www.w3.org/1999/xlink">
    <!-- Generator: Sketch 59.1 (86144) - https://sketch.com -->
    <title>logo</title>
    <desc>Created with Sketch.</desc>
    <g id="Page-1" stroke="none" stroke-width="1" fill="none" fill-rule="evenodd">
        <g id="Artboard-Copy-9" transform="translate(-29.000000, -156.000000)">
            <g id="logo" transform="translate(29.000000, 157.000000)">
                <path d="M370.587988,66.2813041 C368.159013,46.1250733 352.903345,34.5341753 332.704501,34.5341753 C309.650546,34.5341753 292.051131,50.8125688 292.051131,79.363678 C292.051131,107.82956 309.35225,124.193181 332.704501,124.193181 C355.076639,124.193181 368.585149,109.321036 370.587988,93.2557102 L351.923233,93.170483 C350.176075,102.50286 342.846537,107.872174 333.002796,107.872174 C319.749968,107.872174 310.758499,98.0284329 310.758499,79.363678 C310.758499,61.2102862 319.622127,50.8551824 333.130637,50.8551824 C343.230059,50.8551824 350.516984,56.6932451 351.923233,66.2813041 L370.587988,66.2813041 Z M408.919544,124.278408 C428.777479,124.278408 441.135422,110.684671 441.135422,90.5284401 C441.135422,70.2443685 428.777479,56.6932451 408.919544,56.6932451 C389.061608,56.6932451 376.703665,70.2443685 376.703665,90.5284401 C376.703665,110.684671 389.061608,124.278408 408.919544,124.278408 Z M409.004771,110.215921 C399.842848,110.215921 395.155352,101.821043 395.155352,90.4005993 C395.155352,78.9801556 399.842848,70.5426637 409.004771,70.5426637 C417.996239,70.5426637 422.683735,78.9801556 422.683735,90.4005993 C422.683735,101.821043 417.996239,110.215921 409.004771,110.215921 Z M507.67716,57.545517 L488.458429,57.545517 L474.907305,104.377859 L474.225488,104.377859 L460.631751,57.545517 L441.455633,57.545517 L464.339133,123 L484.793659,123 L507.67716,57.545517 Z M540.468928,124.278408 C556.662094,124.278408 567.571175,116.394893 570.12799,104.250018 L553.338234,103.142064 C551.505849,108.127855 546.818354,110.727284 540.767223,110.727284 C531.803986,110.727284 526.082032,104.868042 525.940384,95.324436 L525.937692,94.9176404 L570.511513,94.9176404 L570.511513,89.9318497 C570.511513,67.6875528 557.045617,56.6932451 539.744497,56.6932451 C520.483151,56.6932451 507.997368,70.3722093 507.997368,90.5710537 C507.997368,111.323875 520.312697,124.278408 540.468928,124.278408 Z M525.937692,83.6676511 C526.321214,76.2102719 531.988822,70.2443685 540.042792,70.2443685 C547.926307,70.2443685 553.380847,75.8693631 553.423461,83.6676511 L525.937692,83.6676511 Z M578.203876,123 L596.357268,123 L596.357268,85.9687853 C596.357268,77.9148157 602.237944,72.3750483 610.2493,72.3750483 C612.763502,72.3750483 616.215203,72.8011842 617.919747,73.355161 L617.919747,57.2472218 C616.30043,56.8636994 614.04191,56.6080179 612.209525,56.6080179 C604.879987,56.6080179 598.87147,60.8693774 596.485108,68.9659606 L595.803291,68.9659606 L595.803291,57.545517 L578.203876,57.545517 L578.203876,123 Z M623.097886,123 L641.251278,123 L641.251278,57.545517 L623.097886,57.545517 L623.097886,123 Z M632.217196,49.108025 C637.629122,49.108025 642.060936,44.9745062 642.060936,39.9034883 C642.060936,34.875084 637.629122,30.7415653 632.217196,30.7415653 C626.847883,30.7415653 622.416069,34.875084 622.416069,39.9034883 C622.416069,44.9745062 626.847883,49.108025 632.217196,49.108025 Z M686.784477,57.545517 L673.78733,57.545517 L673.78733,53.1563166 C673.78733,48.7245027 675.577101,46.1250733 680.903801,46.1250733 C683.077094,46.1250733 685.293001,46.5938229 686.741863,47.0625724 L689.937883,33.4262218 L689.524389,33.3054506 C687.10761,32.6213988 682.374578,31.6364508 677.111191,31.6364508 C664.795861,31.6364508 655.633938,38.5824669 655.633938,52.8154078 L655.633938,57.545517 L646.386788,57.545517 L646.386788,71.1818676 L655.633938,71.1818676 L655.633938,123 L673.78733,123 L673.78733,71.1818676 L686.784477,71.1818676 L686.784477,57.545517 Z M704.917146,147.41759 C700.314878,147.41759 696.096132,146.650546 693.496703,145.585206 L697.587608,131.991469 L698.20988,132.180528 C704.265494,133.960455 708.452678,133.373966 710.925663,127.644882 L711.991003,124.874998 L688.510912,57.545517 L707.601803,57.545517 L721.152926,105.613653 L721.834744,105.613653 L735.513708,57.545517 L754.73244,57.6307442 L729.292123,130.073857 C725.627354,140.556801 718.425656,147.41759 704.917146,147.41759 Z" id="Coverify" fill="#fff" fill-rule="nonzero"></path>
                <path d="M153,135 C153,149.359403 141.359403,161 127,161 L26,161 C11.6405965,161 1.75851975e-15,149.359403 0,135 L0,26 C-1.75851975e-15,11.6405965 11.6405965,-9.1493405e-16 26,0 L127,0 C141.359403,-2.63777963e-15 153,11.6405965 153,26 L153,53 C137.536027,53 125,65.0883118 125,80 C125,94.9116882 137.536027,107 153,107 L153,135 Z" id="Combined-Shape" fill="#fff"></path>
                <path d="M173,152 C212.764502,152 245,119.764502 245,80 C245,40.235498 212.764502,8 173,8" id="Oval" stroke="#fff" stroke-width="17" stroke-linecap="round"></path>
                <path d="M178,102 C190.150264,102 200,92.1502645 200,80 C200,67.8497355 190.150264,58 178,58" id="Oval" stroke="#fff" stroke-width="10" stroke-linecap="round"></path>
            </g>
        </g>
    </g>
</svg>