<?xml version="1.0" encoding="UTF-8"?>
<svg width="766px" height="591px" viewBox="0 0 766 591" version="1.1" xmlns="http://www.w3.org/2000/svg" xmlns:xlink="http://www.w3.org/1999/xlink">
    <!-- Generator: Sketch 59.1 (86144) - https://sketch.com -->
    <title>welcome</title>
    <desc>Created with Sketch.</desc>
    <g id="Page-1" stroke="none" stroke-width="1" fill="none" fill-rule="evenodd">
        <g id="Artboard" transform="translate(0.000000, -23.000000)" fill-rule="nonzero">
            <g id="welcome" transform="translate(0.000000, 23.000000)">
                <path d="M765.777797,280.330083 C765.777797,316.335216 755.41565,350.460594 736.87657,381.006606 C733.673155,386.293416 730.226951,391.467963 726.537959,396.530246 C710.842008,418.100431 690.900945,437.563723 667.59982,454.246545 C666.17434,455.264745 664.738416,456.272503 663.292049,457.269817 C662.743787,457.645768 662.203358,458.021719 661.655096,458.39767 C659.375894,459.940635 657.070584,461.460103 654.739166,462.956075 C654.002929,463.426013 653.266691,463.88812 652.530454,464.350226 C651.903869,464.749674 651.269452,465.141289 650.635035,465.532905 C643.844421,469.731055 636.821449,473.702037 629.566119,477.44585 C628.775055,477.85313 627.97616,478.26041 627.177264,478.66769 C626.488021,479.012312 625.798777,479.364766 625.101702,479.709388 C624.616098,479.952189 624.122663,480.194991 623.637059,480.42996 C622.822499,480.83724 622.000106,481.236688 621.177714,481.628304 C619.039493,482.654336 616.885607,483.659483 614.716057,484.643743 C613.721354,485.098017 612.718818,485.552291 611.70845,485.990901 C611.699828,485.999166 611.688906,486.004627 611.677121,486.006566 C610.674585,486.453007 609.672049,486.891617 608.661681,487.322394 C607.737421,487.721842 606.805423,488.121289 605.873378,488.505073 C603.069411,489.687752 600.241947,490.831269 597.390986,491.935625 C596.803562,492.170594 596.208307,492.397731 595.613051,492.624868 C594.790659,492.938161 593.976098,493.251453 593.145873,493.556913 C592.088511,493.948529 591.038982,494.340144 589.98162,494.723927 C588.994749,495.084214 588.007877,495.436668 587.013174,495.789122 L586.801702,495.859613 C585.806998,496.212067 584.812295,496.556688 583.809759,496.893478 C578.65613,498.66358 573.426757,500.318808 568.12164,501.859163 C567.455894,502.05497 566.790147,502.242946 566.124401,502.430921 C565.826773,502.524909 565.521313,502.611064 565.215853,502.689388 C564.440454,502.908692 563.665055,503.127997 562.881824,503.339469 C561.926282,503.6136 560.962908,503.872067 559.991702,504.1227 C557.289554,504.843273 554.574353,505.532516 551.846098,506.190431 C550.921886,506.417568 550.005505,506.636872 549.081293,506.848345 C549.064652,506.858156 549.045778,506.863548 549.026466,506.864009 C548.102254,507.075482 547.178041,507.286954 546.253828,507.498426 C544.961497,507.796054 543.653548,508.08585 542.345505,508.352148 C540.833869,508.681105 539.314401,508.994398 537.7871,509.30769 C536.839391,509.495666 535.891681,509.683641 534.943971,509.863784 C533.996262,510.05176 533.040681,510.231903 532.09301,510.404214 C527.323133,511.289265 522.514094,512.08555 517.665894,512.793069 C515.864462,513.051535 514.063031,513.302169 512.245935,513.54497 C511.133747,513.693784 510.013726,513.834766 508.893706,513.967915 C507.914667,514.0854 506.927796,514.202885 505.948757,514.312537 C504.969718,514.430022 503.990679,514.531842 503.003808,514.641494 L502.995976,514.641494 C502.901988,514.657159 502.808,514.664991 502.714012,514.672823 C501.108389,514.845134 499.494933,515.00178 497.881477,515.158426 C496.933767,515.252414 495.986057,515.330737 495.030515,515.40906 C494.176794,515.487383 493.315239,515.557827 492.453685,515.620533 C489.876824,515.832005 487.292161,516.012148 484.699697,516.160962 C483.86164,516.215788 483.023583,516.262782 482.185526,516.301944 C480.399759,516.403764 478.613992,516.482126 476.820393,516.552578 C476.076323,516.583907 475.324421,516.615236 474.580352,516.638733 C472.57528,516.709224 470.562376,516.756218 468.549472,516.795379 C467.413787,516.818876 466.278102,516.834541 465.142417,516.842373 C463.79526,516.858038 462.448102,516.86587 461.100945,516.86587 C395.928286,516.86587 321.020066,494.543784 259.317121,462.094521 C243.806471,453.984098 228.801036,444.942127 214.383153,435.018222 C206.03391,429.245809 198.154605,423.308917 190.839227,417.231044 C136.318511,372.03861 112.719759,319.961576 156.424053,280.330083 C162.063317,275.215584 168.13858,269.892223 174.649841,264.360001 C179.576364,260.169715 184.719582,255.872387 190.079493,251.468017 C266.421027,188.762537 383.427957,106.507608 461.100945,43.7942956 C592.025798,-61.910595 765.777797,149.694939 765.777797,280.330083 Z" id="Path" fill="#1DB954"></path>
                <path d="M667.599804,454.246529 C613.314058,493.12612 540.778988,516.865855 461.100929,516.865855 C395.928271,516.865855 321.02005,494.543769 259.317105,462.094505 C264.196635,449.445323 270.995081,439.192828 280.44868,434.000006 C280.683649,433.866857 280.926451,433.733707 281.169252,433.616223 C285.206651,431.541234 289.663804,430.413553 294.202218,430.31882 C349.811625,428.752358 343.545776,491.410844 413.253342,405.255425 C456.605183,351.674587 505.713772,333.237327 539.283056,339.197715 C539.901809,339.307368 540.512729,339.424852 541.123649,339.550169 C560.579109,343.591642 574.497126,356.045016 578.515101,374.709413 C589.480336,425.619433 557.367862,466.34745 616.110193,453.815752 C633.107049,450.278943 650.664504,450.425833 667.599804,454.246529 Z" id="Path" fill="#1F1F1F"></path>
                <path d="M502.917778,514.787903 C475.598772,499.558492 458.591794,478.766158 452.36878,452.98913 C447.748179,433.850456 449.075998,412.313896 456.314769,388.977588 C461.681018,371.772065 469.726747,355.520327 480.15554,340.821111 C535.481526,262.50874 540.474993,211.480131 534.921642,182.462344 C528.832858,150.645108 509.05054,137.431146 508.851294,137.301498 L509.705274,135.988207 C509.909494,136.12091 530.213076,149.641977 536.448331,182.104759 C540.042853,200.819698 538.351716,222.15969 531.421961,245.531596 C522.79724,274.618997 505.979185,306.983123 481.435143,341.725226 C471.1014,356.289982 463.128744,372.393006 457.810857,389.441128 C445.938484,427.71543 444.258821,480.293639 503.680355,513.420343 L502.917778,514.787903 Z" id="Path" fill="#D0CDE1"></path>
                <path d="M454.589209,366.646362 C433.051881,354.640894 433.651546,335.613885 437.947075,321.76661 C439.851613,315.659122 442.707421,309.890199 446.409261,304.672435 C465.791551,277.237166 467.543115,259.414837 465.599574,249.294786 C463.488523,238.305459 456.716707,233.79386 456.648636,233.749482 L457.502233,232.436191 C457.803213,232.631623 464.902388,237.361603 467.13773,248.999547 C470.048459,264.153612 463.504963,283.188649 447.688896,305.576519 C444.081792,310.659636 441.299024,316.279893 439.443172,322.230111 C435.319351,335.524385 434.731927,353.784227 455.351786,365.278754 L454.589209,366.646362 Z" id="Path" fill="#D0CDE1"></path>
                <path d="M551.488052,199.035631 L550.725467,197.667271 C571.345325,186.17236 570.757902,167.912526 566.634089,154.619011 C564.778238,148.668671 561.995472,143.048285 558.388365,137.965028 C542.572298,115.577542 536.028794,96.5421208 538.939523,81.3880561 C541.174865,69.7501116 548.274071,65.0201321 548.575028,64.8247002 L549.429776,66.1372311 C549.361321,66.182353 542.555082,70.7532426 540.465829,81.7452486 C538.543702,91.8595581 540.314383,109.666599 559.668,137.060944 C563.36969,142.278657 566.225486,148.047429 568.130177,154.154735 C572.425714,168.00201 573.025372,187.029019 551.488052,199.035631 Z" id="Path" fill="#D0CDE1"></path>
                <path d="M597.471854,121.101851 C590.381165,131.970365 575.822353,135.032897 564.953839,127.942207 C554.085324,120.851518 551.022792,106.292706 558.113482,95.4241915 C565.204175,84.5556776 600.902563,72.8405065 600.902563,72.8405065 C600.902563,72.8405065 604.562539,110.233337 597.471854,121.101851 Z" id="Path" fill="#1F1F1F"></path>
                <path d="M588.856312,48.2613601 C581.765623,59.1298745 567.206811,62.1924064 556.338297,55.1017166 C545.469782,48.0110267 542.40725,33.4522151 549.49794,22.5837007 C556.588633,11.7151868 592.287021,1.56646217e-05 592.287021,1.56646217e-05 C592.287021,1.56646217e-05 595.946997,37.3928461 588.856312,48.2613601 Z" id="Path" fill="#1F1F1F"></path>
                <path d="M587.74154,268.753904 C586.237736,268.40145 550.7652,260.154027 538.938411,265.785458 C528.6857,270.667632 523.186255,282.003996 525.698148,293.078475 C528.21004,304.152955 538.062281,312.007279 549.418043,311.988294 C551.1833,311.989534 552.94326,311.79515 554.665691,311.408669 C556.444703,311.010767 558.173418,310.414387 559.819352,309.630734 C571.646141,303.99147 587.592726,271.252411 588.266304,269.85826 L588.697082,268.981041 L587.74154,268.753904 Z M559.145773,308.213086 C547.82118,313.607191 534.267997,308.799581 528.873891,297.474988 C523.479786,286.150395 528.287396,272.597212 539.61199,267.203106 C542.368963,265.887278 546.582746,265.393843 551.391785,265.393843 C564.550067,265.393843 582.141437,269.11419 586.417879,270.0619 C583.747085,275.419208 569.437437,303.310052 559.145773,308.213086 L559.145773,308.213086 Z" id="Shape" fill="#D0CDE1"></path>
                <path d="M480.992986,135.692271 C474.943957,135.701998 469.110911,133.444397 464.644603,129.364821 C454.963593,120.537408 449.217089,84.5745613 448.976919,83.0478716 L448.825474,82.0826019 L449.80069,82.1445555 C451.342677,82.2428432 487.68261,84.65449 497.36362,93.4819038 L497.36362,93.4819038 C504.775904,100.234409 507.272509,110.850045 503.646873,120.198469 C500.021236,129.546893 491.019889,135.703232 480.993017,135.692271 L480.992986,135.692271 Z M450.686384,83.7790883 C451.688364,89.6762701 457.278057,120.528228 465.700093,128.207566 C474.970598,136.652927 489.331306,135.987263 497.780799,126.720524 C506.230292,117.453786 505.57103,103.092782 496.308059,94.639159 L496.308059,94.639159 C487.88603,86.9605808 456.650869,84.2341925 450.686384,83.7790883 Z" id="Shape" fill="#D0CDE1"></path>
                <path d="M448.275489,191.964527 C457.85615,200.709966 458.53725,215.564763 449.797069,225.150223 C441.056889,234.735682 426.202468,235.424935 416.612213,226.690017 C407.023029,217.94644 401.19091,180.830317 401.19091,180.830317 C401.19091,180.830317 438.686281,183.220958 448.275489,191.964527 Z" id="Path" fill="#1F1F1F"></path>
                <path d="M520.289687,192.827475 C518.952575,186.671451 513.517071,182.271591 507.21756,182.246023 C506.25367,182.249541 505.29283,182.354551 504.350934,182.559315 C497.348895,184.078784 484.903306,199.328293 484.378541,199.970542 L483.759789,200.730277 L484.637008,201.168886 C485.326251,201.513508 500.317294,208.938538 508.165269,208.938538 C508.791304,208.946086 509.416309,208.885684 510.029312,208.758395 C517.259342,207.188921 521.851241,200.059209 520.28964,192.827475 L520.289687,192.827475 Z M517.141098,202.069602 C515.451163,204.719615 512.767271,206.579432 509.69257,207.231094 C504.068971,208.452935 489.923817,201.959949 486.226967,200.197679 C488.858623,197.064755 499.056292,185.308456 504.687723,184.086616 C509.367877,183.073494 514.197415,184.979922 516.923643,188.916663 C519.64987,192.853405 519.7357,198.044892 517.141098,202.069602 L517.141098,202.069602 Z" id="Shape" fill="#D0CDE1"></path>
                <ellipse id="Oval" fill="#1F1F1F" cx="330.692938" cy="560.615052" rx="326.998978" ry="7.59525812"></ellipse>
                <ellipse id="Oval" fill="#1F1F1F" cx="330.692938" cy="585.737823" rx="226.383906" ry="5.25825321"></ellipse>
                <path d="M5.65203047,321.575008 C5.65203047,321.575008 -5.3132047,347.421634 3.30233722,349.771327 C11.9178791,352.121021 15.8340346,321.575008 15.8340346,321.575008 L5.65203047,321.575008 Z" id="Path" fill="#FFB8B8"></path>
                <polygon id="Path" fill="#2F2E41" points="38.1558855 179.418661 9.56795092 265.182464 3.30210225 311.393098 3.30210225 326.274489 19.749955 324.708027 19.749955 312.176329 45.5965808 233.06999"></polygon>
                <path d="M58.9117442,249.517749 L57.345282,266.748832 L107.472071,269.881757 L107.472071,231.503434 C107.472071,226.804047 58.9117442,249.517749 58.9117442,249.517749 Z" id="Path" fill="#FFB8B8"></path>
                <path d="M33.0651184,515.033086 L30.7154252,536.963556 L56.5620509,534.613863 C56.5620509,534.613863 49.5129712,517.382779 48.7297401,515.033086 C47.946509,512.683393 33.0651184,515.033086 33.0651184,515.033086 Z" id="Path" fill="#FFB8B8"></path>
                <polygon id="Path" fill="#FFB8B8" points="119.220303 475.088395 116.087378 496.235634 132.535231 507.9841 130.968769 479.787781"></polygon>
                <path d="M71.4434415,255.783597 L57.345282,255.783597 L52.6458955,264.399139 C52.6458955,264.399139 22.0998832,286.329609 22.0998832,331.757012 L22.0998832,432.010591 C22.0998832,432.010591 21.3166521,503.28462 29.9321941,511.116931 L30.7925108,516.278807 L31.4986562,520.515704 L50.2962022,517.382779 C50.2962022,517.382779 48.7297401,511.116931 51.0794333,505.634313 C53.4291266,500.151695 49.5129712,469.605683 49.5129712,469.605683 L54.2123577,421.828587 L82.4086767,352.121021 L117.654075,402.24781 C117.654075,402.24781 113.73792,471.955376 115.304382,474.30507 C116.870844,476.654763 114.521151,483.703843 114.521151,483.703843 L134.885159,483.703843 L148.200088,390.499344 L118.437307,306.693618 C118.437307,306.693618 121.570231,268.315295 110.604996,264.399139 C99.6397605,260.482984 71.4434415,255.783597 71.4434415,255.783597 Z" id="Path" fill="#1F1F1F"></path>
                <path d="M127.052848,497.802002 C127.052848,497.802002 124.487305,486.053536 119.895847,483.703843 C115.30439,481.354149 108.255302,487.619998 108.255302,487.619998 C108.255302,487.619998 89.4577564,491.536153 97.2900673,511.116931 L100.422992,515.816317 C100.422992,515.816317 105.905609,513.466624 105.905609,525.21509 C105.905609,536.963556 123.919924,547.928791 130.185773,547.928791 C136.451621,547.928791 138.801315,542.446174 137.234853,533.047401 C135.66839,523.648628 132.535466,499.118692 132.535466,499.118692 L127.052848,497.802002 Z" id="Path" fill="#2F2E41"></path>
                <path d="M47.8877745,528.016966 C47.8877745,528.016966 36.8337601,523.282272 32.2543567,525.655376 C27.6749534,528.02848 28.6818283,537.405933 28.6818283,537.405933 C28.6818283,537.405933 20.9526925,554.982751 41.4415164,559.978763 L47.0866466,560.157645 C47.0866466,560.157645 48.3580029,554.329795 57.9220142,561.153006 C67.4860255,567.976218 86.8746838,559.679748 90.5137321,554.578932 C94.1527803,549.478117 91.0542164,544.381154 82.49325,540.197792 C73.9322836,536.014429 52.1438287,524.318463 52.1438287,524.318463 L47.8877745,528.016966 Z" id="Path" fill="#2F2E41"></path>
                <circle id="Oval" fill="#FFB8B8" cx="78.8841446" cy="126.942084" r="26.6298569"></circle>
                <polygon id="Path" fill="#FFB8B8" points="63.6108957 137.515798 58.9115092 167.278579 87.1078282 169.628272 90.2407526 139.865491"></polygon>
                <path d="M110.780878,184.072244 C102.928426,171.246836 90.8922479,161.522681 76.7031672,156.540504 C74.5178976,155.781553 64.4812456,155.921117 58.4232586,155.83403 C50.3681615,155.723271 43.1602412,160.818415 40.5773384,168.448977 C33.3249005,189.781058 23.7307427,231.632847 52.645872,247.951286 L58.9117207,253.433904 L114.521128,237.769282 C114.521128,237.769282 110.604972,228.370509 112.954665,225.237585 C115.304359,222.104661 123.13667,203.307115 114.521128,189.992186 C113.178262,187.916812 111.930512,185.936576 110.780878,184.072244 Z" id="Path" fill="#2F2E41"></path>
                <path d="M113.346304,115.193618 C113.346304,115.193618 118.920192,77.5473258 79.1155738,89.1632772 C79.1155738,89.1632772 50.9561058,83.4355866 41.0101989,118.605364 L30.9150864,155.478317 L35.5360245,153.076994 L37.5785658,157.778299 L44.9531564,159.79732 L48.2451942,153.563991 L49.6325157,161.236985 L110.21338,168.453347 C110.21338,168.453347 83.3370718,151.854378 83.4592167,123.03221 L88.5323219,128.603615 L113.346304,115.193618 Z" id="Path" fill="#1F1F1F"></path>
                <path d="M73.6495963,86.6438099 L78.9552977,86.6438099 C80.7995021,86.6438099 82.2945251,88.1388329 82.2945251,89.9830373 L82.2945251,127.371826 L70.3103689,127.371826 L70.3103689,89.9830373 C70.3103689,88.1388329 71.805392,86.6438099 73.6495963,86.6438099 L73.6495963,86.6438099 Z" id="Path" fill="#1DB954" transform="translate(76.302447, 107.007818) rotate(-11.101780) translate(-76.302447, -107.007818) "></path>
                <circle id="Oval" fill="#D0CDE1" cx="83.5835311" cy="129.291777" r="14.0981595"></circle>
                <circle id="Oval" fill="#1DB954" cx="83.5835311" cy="129.291777" r="7.83231084"></circle>
                <path d="M143.475693,344.111237 L147.27358,339.127538 L146.650614,338.652806 L149.211184,335.292705 C150.420695,333.705544 150.950157,331.702905 150.683091,329.725363 C150.416025,327.74782 149.374308,325.957369 147.787113,324.747901 L138.575306,317.728012 C136.988167,316.51847 134.985538,315.988968 133.007989,316.255996 C131.030441,316.523024 129.239969,317.564707 128.03047,319.151879 L106.293755,347.675722 C105.084239,349.262886 104.554771,351.265528 104.821831,353.243077 C105.088891,355.220626 106.130602,357.011086 107.717794,358.220566 L116.92961,365.240454 C118.516761,366.44999 120.519398,366.979482 122.496951,366.712445 C124.474504,366.445408 126.264977,365.403718 127.474477,363.81654 L137.630698,350.48908 L138.253664,350.963812 L142.051504,345.980113 L141.428546,345.505381 L142.852734,343.636498 L143.475693,344.111237 Z" id="Path" fill="#3F3D56"></path>
                <circle id="Oval" fill="#D0CDE1" cx="136.060217" cy="330.582369" r="3.91615542"></circle>
                <path d="M105.122378,327.840857 C105.122378,327.840857 109.038534,359.953331 116.087613,358.386869 C123.136693,356.820407 121.570231,324.707933 116.087613,324.707933 C110.604996,324.707933 105.122378,327.840857 105.122378,327.840857 Z" id="Path" fill="#FFB8B8"></path>
                <path d="M80.8422145,173.544333 C80.8422145,173.544333 77.7092902,182.943106 79.2757524,197.824497 C80.8422145,212.705888 84.7583699,262.832677 84.7583699,262.832677 C84.7583699,262.832677 91.0242186,316.875622 100.422992,320.791777 L102.772685,331.757012 L120.787,328.624088 L118.437307,315.30916 C119.373867,312.513669 119.373867,309.489108 118.437307,306.693618 C116.870844,301.994231 104.339147,180.593413 104.339147,180.593413 C104.339147,180.593413 101.206223,161.795867 80.8422145,173.544333 Z" id="Path" fill="#2F2E41"></path>
            </g>
        </g>
    </g>
</svg>